<?xml version="1.0" encoding="utf-8"?>
<!-- Generator: Adobe Illustrator 22.1.0, SVG Export Plug-In . SVG Version: 6.00 Build 0)  -->
<svg version="1.1" id="Layer_1" xmlns="http://www.w3.org/2000/svg" xmlns:xlink="http://www.w3.org/1999/xlink" x="0px" y="0px"
	 viewBox="0 0 100 100" style="enable-background:new 0 0 100 100;" xml:space="preserve">
<style type="text/css">
	.st0{opacity:0.85;fill:#F4EDEA;}
	.st1{fill:none;stroke:#993300;stroke-width:0.5;stroke-miterlimit:10;}
	.st2{opacity:0.3;}
	.st3{fill:#993300;}
	.st4{font-family:'Mouser';}
	.st5{font-size:8.7796px;}
</style>
<g>
	<circle class="st0" cx="49.5" cy="46.9" r="36.1"/>
	<circle class="st1" cx="49.5" cy="46.9" r="32.6"/>
	<g class="st2">
		<path d="M64.5,26.9c0,0,2.2-0.2,3.5,0.6c1.1,0.7,1.5,1.6,1.7,2.8s-0.3,4.8-1.8,6.9c-1.5,2.3-2.6,4-5.3,4.7
			c-1.9,0.5-3.9,0.2-3.9,0.2s-2.7-0.3-3.8,0.7c-1.6,1.3-13.1,14.4-19.1,20.8c-3.8,4.1-5.9,1.9-5.9,1.9s-1.7-2,1.2-5.3
			s13.2-10.9,13.2-10.9l8.6-6.8c0,0,2.4-2.1,2.4-5.3c0-3.3,1.1-5.8,3.3-7.7C60.8,27.6,64.5,26.9,64.5,26.9z"/>
		<path d="M45.8,32.8c0.6,1.8,0.5,1.8,1.3,3.4c1.3,2.5,1.3,5.3,1.3,5.3l-1.9,26.5c0,0-0.9,8,2.9,8c3.2,0,2.4-8.2,2.4-8.2l-1.8-25.4
			c0,0-0.1-3.9,0.8-5.6c1.7-3.4,1.3-2.4,1.8-4.1c0.6-2.1-0.9-14.4-0.9-14.4l-0.5,10.6c0,0-0.2,1.3-0.5-1c-0.3-2.3-0.7-9.7-0.7-9.7
			s-0.5,9.2-0.5,10.4c-0.1,1.3-0.7,0.6-0.7-0.5c0-1.1-0.5-10.1-0.5-10.1S47.5,28,47.5,28.8c0,0.7-0.3,1-0.4,0.1
			c-0.2-1.2-0.5-11-0.5-11S45.4,31.4,45.8,32.8z"/>
		<path d="M30.2,25.9c0,0,0.3-0.6,2.9,1.6c2.8,2.4,14.6,16.1,14.6,16.1s2.3,3,4.1,4.4c1.7,1.4,2.6,2.3,3.7,3.1c1.1,0.7,6.5,6,6.5,6
			s3,2.5,4.4,4.1s3.1,4.3,1.8,6c-1.3,1.8-4,0.5-5.7-1.2c-1.4-1.4-9.4-12.7-13.7-18.4c-0.8-1.1-1.4-1.1-1.4-1.1s-2.5,0-3.4-0.8
			c-0.6-0.4-2-1.5-3.3-2.7s-3.2-3.3-4.3-4.7c-1.1-1.4-5.1-7.5-5.5-8.5C30.5,28.5,29.5,26.5,30.2,25.9z"/>
	</g>
	<text transform="matrix(1.1 0 0 1 19.4478 49.4619)" class="st3 st4 st5">FOOD</text>
	<text transform="matrix(1.1 0 0 1 46.5791 49.4619)" class="st3 st4 st5">HEAVEN</text>
</g>
</svg>
