<?xml version="1.0" encoding="utf-8"?>
<!-- Generator: Adobe Illustrator 22.1.0, SVG Export Plug-In . SVG Version: 6.00 Build 0)  -->
<svg version="1.1" id="Layer_1" xmlns="http://www.w3.org/2000/svg" xmlns:xlink="http://www.w3.org/1999/xlink" x="0px" y="0px"
	 viewBox="0 0 100 100" style="enable-background:new 0 0 100 100;" xml:space="preserve">
<style type="text/css">
	.st0{fill:#075AAD;}
	.st1{font-family:'Blenny-Black';}
	.st2{font-size:19.1528px;}
</style>
<g>
	<text transform="matrix(1 0 0 1 27.9991 54.3793)" class="st0 st1 st2">eviche</text>
	<g>
		<path class="st0" d="M40.1,33.5c0,0,1.1-1.2-0.6-1.8c-1.8-0.6-2.2-0.5-2.8-0.6c-1.4-0.2-10.1-0.1-9.6-0.1c0.5,0-2.7,0-3,0.2
			c-0.3,0.2-2.3,0.8-1.2,3.4s2.6,3.1,2.6,3.1s1.4,1,4.9,0.3C33.9,37.4,39.1,35,40.1,33.5z"/>
		<path class="st0" d="M21.2,32.7c0,0-4.5,1.4-5.6,2.1s0,2,0,2s2,3.5,7,4.1c2.8,0.3,1.3-2.5,1.3-2.5L21.2,32.7z"/>
		<path class="st0" d="M14.3,37c0,0-1-0.8-1.8-0.3c-0.8,0.4-1.4,1.6-1.4,1.6s-0.7,0.8,0,1.7c1,1.3,0.9,1.1,0.9,1.1l2.4,2.4
			c0,0,1.4,0.7,3.2,0c1.8-0.7,2.4-1.3,1.5-2C18.2,40.8,14.3,37,14.3,37z"/>
		<path class="st0" d="M9.6,40.5l-1.5,2.1c0,0-0.3,0.9,0.4,1.8c0.6,0.8,2,1.8,2,1.8s1.8,0.7,3.7,0.3c1.1-0.2,0.2-1.2,0.2-1.2
			S11.3,41.4,9.6,40.5z"/>
		<path class="st0" d="M14,47.5c0,0-3.2-0.9-6-0.9c-2.8,0,2.2,4.5,2.2,4.5s2.3-0.7,3.9-1.2C15.6,49.3,14,47.5,14,47.5z"/>
		<path class="st0" d="M15.2,50.2c0,0-3.3,0.7-4.5,1.7c-1,0.7,2.8,2.1,2.8,2.1l0.9,0.2c0,0,2-1.4,2.1-2.2
			C16.4,51.3,15.2,50.2,15.2,50.2z"/>
		<path class="st0" d="M16.9,52.7l-1.3,1.8c0,0-0.3,0.7,0.7,0.8s1.8,0,1.8,0s0.2,0.1,0.4-0.7c0.2-0.8,0-1.7,0-1.7L18,52.7
			C18,52.7,17.3,52.2,16.9,52.7z"/>
		<path class="st0" d="M19.6,54.6c0,0,1.4,2.1,2.4,2.5c0.4,0.1,2.5,0.5,1.4-0.7C22.4,55.1,19.6,54.6,19.6,54.6z"/>
		<path class="st0" d="M19.8,53.7c0,0,1,1.3,3.5,1.6c0.7,0.1,1.4-0.1,1.4-0.1s2.9-1,0.3-1.9C23.1,52.7,19.8,53.7,19.8,53.7z"/>
		<path class="st0" d="M19.4,52.8c0,0,2.8-2.4,4.5-2.5s0.9,1.2,0.9,1.2s-0.7,0.7-1.3,0.9c-0.7,0.3-1.2,0.4-1.8,0.4
			C21.1,52.9,19.4,52.8,19.4,52.8z"/>
		<path class="st0" d="M32.4,38.2c0,0,0.6-0.5,1.2-0.3c0.6,0.2,1.3,0.9,1.5,1.5c0.2,0.6,0.1,2-0.4,2.9c-0.2,0.5-0.4-1.7-0.5-2.4
			c-0.1-0.4-0.1-0.6-0.3-0.9C33.6,38.6,33,38,32.4,38.2z"/>
		<path class="st0" d="M29.9,39c0,0,0.6-0.5,1.3-0.3c0.8,0.3,1,0.7,1.1,1s0.2,0.8,0.2,1.5c0,0.7-0.1,1.6-0.3,1.7
			c-0.3,0.3-0.7-1.7-0.7-1.7s-0.2-1.3-0.4-1.7C31,39.3,30.5,38.8,29.9,39z"/>
		<path class="st0" d="M26.9,39.5c0,0,0.5-0.4,1.1-0.3c0.7,0.1,1.1,1,1.1,1s0.3,1.5,0.1,2.8c-0.2,1.3-0.9-2.2-0.9-2.2
			S28.1,39.3,26.9,39.5z"/>
		<path class="st0" d="M24.6,40.7c0,0,1-0.4,1.3-0.2c0.2,0.2,0.9,0.4,1,1.3c0.1,0.7,0.1,2.2,0,2.3c-0.1,0.1-0.4-0.4-0.6-1
			s-0.3-1.5-0.5-1.6C25.6,41.3,25.3,40.6,24.6,40.7z"/>
		<path class="st0" d="M35.8,36.7c0,0,6.2,0,7.3-0.1c1.1-0.1,4-0.5,6.1-1.7c2.1-1.2,1.4-3.5,1.4-3.5S50,29.8,49.2,29
			c-0.8-0.8-0.8-0.9-1.9-1.3c-0.6-0.2-1-0.2-1.4-0.2c-0.4,0-0.8,0-1.2,0c-0.8,0.1-3.9,0.8-5.4,2c-0.3,0.3,0.1-0.3,0.3-0.5
			s2.5-1.6,4.4-2c1.9-0.4,3.4-0.2,4.1,0.1c0.5,0.2,1.2,0.4,2,1.3c0.3,0.3,0.6,0.7,1,1.3c1.1,1.8,0.7,4.1,0.3,4.6
			c-0.4,0.5-1.4,1.8-3.4,2.5c-1.7,0.6-3.8,1-5,1.1c-1.3,0.1-3.1,0.1-4.1,0.1c-1.1-0.1-3-0.3-3.1-0.4C35.7,37.3,35.8,36.7,35.8,36.7z
			"/>
		<path class="st0" d="M41,34v0.8c0,0.1,5.9,0.1,6.4,0.1c0.5,0,5.2-0.6,6.6-1.4c1.2-0.6,2-1.2,2.6-2.3c0.7-1.1,0.2-3.1,0.1-3.3
			c-0.1-0.3-0.5-1.2-1.4-2c-0.8-0.8-1.8-1.3-1.8-1.3s-0.7-0.4-1.6-0.5S49,24.3,49,24.3s-1.4,0.3-2.2,0.7c-0.8,0.4-2.4,1.6-2.4,1.6
			l2.1-0.9c0,0,1.4-0.6,2.1-0.7c0.7-0.1,1.3-0.3,2.5-0.3c1.5,0,2.5,0.9,2.5,0.9s1.1,0.7,1.6,1.4c0.4,0.7,0.7,0.9,0.7,1.9
			c0,1-0.1,1.9-0.5,2.3c-0.4,0.4-1.7,1.2-2.2,1.4s-2.1,0.8-3.7,1c-1.6,0.2-4.3,0.4-4.7,0.4C44.4,34,41,34,41,34z"/>
	</g>
</g>
</svg>
