<svg id="Layer_1" data-name="Layer 1" xmlns="http://www.w3.org/2000/svg" viewBox="0 0 36 36"><defs><style>.cls-1{fill:#fcac19;}.cls-2{fill:#fff;}.cls-3{fill:#8f1717;}</style></defs><title>Crispy&amp;apos;sLogo</title><path class="cls-1" d="M49.65,51.34l22-6.43s2-.54.95,1.65C70.68,50.37,67.78,55,62,57.17c-3,1.16-8.4,0-10.95-2a15,15,0,0,1-2.6-2.2S47.47,52,49.65,51.34Z" transform="translate(-40.03 -24.13)"/><circle class="cls-2" cx="10.44" cy="28.88" r="0.12"/><ellipse class="cls-2" cx="14.71" cy="31.59" rx="0.24" ry="0.23"/><circle class="cls-2" cx="32.17" cy="13.24" r="0.12"/><ellipse class="cls-2" cx="18.68" cy="29.43" rx="0.24" ry="0.23"/><ellipse class="cls-2" cx="24.4" cy="30.99" rx="0.29" ry="0.29"/><ellipse class="cls-2" cx="27.44" cy="27.24" rx="0.27" ry="0.26"/><ellipse class="cls-2" cx="29.37" cy="23.05" rx="0.26" ry="0.25"/><ellipse class="cls-2" cx="15.53" cy="25.95" rx="0.27" ry="0.26"/><ellipse class="cls-2" cx="21.65" cy="24.25" rx="0.27" ry="0.26"/><path class="cls-3" d="M61.16,42.71l-.76,4.7c-1-1-.52-2.1-.61-3.26-1.13.75-2.24,1.37-3.51.43-.66,1-1.35,1.86-2.74,1.32-.11,0-.4.13-.48.27a1.29,1.29,0,0,1-1.88.54A2.29,2.29,0,0,1,50.45,45a10.19,10.19,0,0,1,.45-2.32c-.8.3-1.26.64-1.36,1.49-.15,1.32-.52,2.62-.8,4a1.31,1.31,0,0,1-.62-1.5c.1-.51.31-1,.4-1.5.12-.77.58-1.52.09-2.32a.8.8,0,0,1,0-.51c.1-.51,0-1.19.7-1.31a5.31,5.31,0,0,1,.48,1.17c0,.07.05.15.12.34.33-.27.6-.52.89-.73s.48-.31.72-.46c.19.39.54.79.52,1.17a8,8,0,0,1-.47,1.66,2.14,2.14,0,0,0-.17,1A6.43,6.43,0,0,0,52,46.44c.31-.38.82-.72.91-1.15.29-1.32.39-2.67.6-4a8.64,8.64,0,0,1,.36-1.09,1.72,1.72,0,0,1,.62,1.87,17.74,17.74,0,0,0-.43,2.47c0,.34.27.71.42,1.06.31-.23.75-.41.88-.71a3.86,3.86,0,0,0,.18-1.45c0-.4-.24-.88.49-.93.13,0,.29-.26.33-.42.22-.85.37-1.72.61-2.57.12-.47,0-1.16.74-1.12l1.66,5.22c.65-.44.72-1.18.85-1.91.25-1.32.54-2.63.85-4.14l.65.69a.62.62,0,0,0,.21-.17,1.41,1.41,0,0,1,1.67-.64c.78.19.92.79.91,1.4,0,1.23-.1,2.45-.16,3.64a2.6,2.6,0,0,0,1.29-2.19c.12-1.39.45-2.76.68-4.13l.49,0a4.19,4.19,0,0,1,.4,1.31,20.84,20.84,0,0,1-.43,2.2,4.08,4.08,0,0,0-.09,1.2,2.06,2.06,0,0,0,.4.72c.22-.16.56-.29.62-.5.4-1.26.74-2.54,1.07-3.81.18-.68.3-1.38.45-2.06l.41,0A6.82,6.82,0,0,1,70,36.8c-.09,1.29-.31,2.57-.51,4.08.94-.8,1.52-1.49,1.39-2.56-.07-.53,0-1,.88-.61.19-1.05.36-2.06.55-3.06.1-.53.23-1.06.74-1.18l1.87,5.34.89-2.17c.53.82.29,1.72-.68,2.6a2.68,2.68,0,0,1-3.62.33c-.55.59-1.12,1.17-1.63,1.79a2.09,2.09,0,0,0-.44.91c-.24,1.24-.44,2.49-.64,3.74-.11.68-.56,1.25-1.16,1.22a1.92,1.92,0,0,1-1.21-1c-.52-1,0-2,.55-2.83a14.21,14.21,0,0,1,1-1.17,1.7,1.7,0,0,0,.37-.8c-.72.5-1.38,1.07-2.3.44,0,0-.35.21-.5.36C64.46,43.3,62.5,44,61.16,42.71Zm2.17-4.92-.37,0a4.06,4.06,0,0,0-1.37,2.59,4.23,4.23,0,0,0,0,1.77.93.93,0,0,0,.62.63.92.92,0,0,0,.72-.49,11.82,11.82,0,0,0,.54-2.41A12.11,12.11,0,0,0,63.33,37.79Zm-5.88,3.5-.19,0a10.57,10.57,0,0,0-.54,2c0,.3.27.71.53,1s.73.2.78.11a1.29,1.29,0,0,0,.18-.93C58,42.7,57.71,42,57.45,41.29ZM72.68,36.2A15.59,15.59,0,0,0,72,38.34a1.35,1.35,0,0,0,.52.93c.19.17.58.13.88.19a3.13,3.13,0,0,0,.11-1C73.33,37.72,73,37,72.68,36.2ZM67.11,46.36l.4.08L68.26,43l-.3-.06C67.45,44,66.66,45.05,67.11,46.36Z" transform="translate(-40.03 -24.13)"/><path class="cls-3" d="M70.51,30.83l-1.22,1.44c-1.89-1.24-3.72-2.52-5.63-3.66a17.94,17.94,0,0,0-8.55-2.79,10.31,10.31,0,0,0-7.57,3,19.2,19.2,0,0,0-5.28,9c-.15.53-.37.81-1,.64-.34-.09-.69-.12-1.26-.21.6-1.54,1.09-3,1.73-4.41a20.73,20.73,0,0,1,3.76-5.59,12.47,12.47,0,0,1,10.53-4,17.1,17.1,0,0,1,7.12,2.17C65.64,27.72,68,29.28,70.51,30.83Z" transform="translate(-40.03 -24.13)"/><path class="cls-3" d="M73.66,44.68l1.6.57a15.55,15.55,0,0,1-.53,1.63,32.91,32.91,0,0,1-5.2,8.55,13.14,13.14,0,0,1-13.35,4.26,22.08,22.08,0,0,1-8.51-4.39c-.52-.42-1.06-.82-1.58-1.24-.74-.59-.73-.78.08-1.33l.57-.42c1,.76,2,1.53,2.95,2.28a17.55,17.55,0,0,0,9.07,3.77,10.15,10.15,0,0,0,7-2,19.77,19.77,0,0,0,6.2-8C72.51,47.18,73.07,46,73.66,44.68Z" transform="translate(-40.03 -24.13)"/><path class="cls-3" d="M47.1,45a2.32,2.32,0,0,1,.36.85,3.16,3.16,0,0,1-2,2.92,2.22,2.22,0,0,1-2.76-.42,5.17,5.17,0,0,1-1.22-2.77,6.39,6.39,0,0,1,2.86-6,2.35,2.35,0,0,1,1.7-.14,1.58,1.58,0,0,1,1.15,1.59c0,.63-.11,1.25-.18,1.94a1.12,1.12,0,0,1-1-1.07c0-.37,0-.75,0-1.12s-.12-.72-.31-.79a1,1,0,0,0-.87.23c-1.67,1.69-3.07,5.05-1.5,7.53a1.36,1.36,0,0,0,2.08.39,8.89,8.89,0,0,0,1.17-2,4.38,4.38,0,0,0,.22-1.1Z" transform="translate(-40.03 -24.13)"/><path class="cls-3" d="M70.89,30.62c.62.87.1,3.09-.87,3.83Z" transform="translate(-40.03 -24.13)"/><path class="cls-3" d="M54.28,38.29A5.49,5.49,0,0,1,55,39.45c0,.14-.24.53-.42.55-.62.08-.7-.42-.7-.85C53.87,39,54.05,38.76,54.28,38.29Z" transform="translate(-40.03 -24.13)"/><path class="cls-1" d="M45,38.23l22.4-4.82s2-.5,0-1.9c-3.56-2.43-8.38-5.06-14.53-4.24-3.22.42-7.31,4-8.54,7a15.35,15.35,0,0,0-1.18,3.16S42.79,38.71,45,38.23Z" transform="translate(-40.03 -24.13)"/><circle class="cls-2" cx="4.86" cy="12.25" r="0.12"/><ellipse class="cls-2" cx="7.23" cy="7.85" rx="0.24" ry="0.23"/><circle class="cls-2" cx="31.66" cy="15.57" r="0.12"/><ellipse class="cls-2" cx="11.77" cy="7.85" rx="0.24" ry="0.23"/><ellipse class="cls-2" cx="15.99" cy="3.77" rx="0.29" ry="0.29"/><ellipse class="cls-2" cx="20.52" cy="5.6" rx="0.27" ry="0.26"/><ellipse class="cls-2" cx="24.3" cy="8.34" rx="0.26" ry="0.25"/><ellipse class="cls-2" cx="10.77" cy="12.4" rx="0.27" ry="0.26"/><ellipse class="cls-2" cx="16.97" cy="10.97" rx="0.27" ry="0.26"/></svg>