<svg id="Layer_1" data-name="Layer 1" xmlns="http://www.w3.org/2000/svg" viewBox="0 0 85.94 26.21"><defs><style>.cls-1{fill:none;stroke:#231f20;}.cls-1,.cls-3{stroke-miterlimit:10;stroke-width:0.25px;}.cls-2{isolation:isolate;}.cls-3{fill:#91ad51;stroke:#91ad51;}</style></defs><title>finevinesLogo</title><line class="cls-1" y1="20" x2="85.94" y2="20"/><g class="cls-2"><path class="cls-3" d="M59.24,34.81c0,.4-.4.74-1.19,1a8.69,8.69,0,0,1-2.87.42,26.4,26.4,0,0,1-5.36-.67A8.77,8.77,0,0,0,47,37.8a24.54,24.54,0,0,0-2.81,4.28l1.25.2c.45-1.05,1.1-1.57,1.94-1.57.58,0,.87.22.87.67a1,1,0,0,1-.58.87,3,3,0,0,1-1.51.33h-.25s-.12.25-.3.65a3.25,3.25,0,0,1-.88,1.19,1.68,1.68,0,0,1-1.07.5c-.11,0-.17,0-.17-.08s0-.07.13-.09c.55-.17,1.12-.92,1.7-2.25l-1-.15-.23-.05c-.12.2-.28.5-.5.9a21.39,21.39,0,0,1-1.7,2.68,8.69,8.69,0,0,1-1.76,1.58A10.47,10.47,0,0,1,34,49.52a5.39,5.39,0,0,1-3-.77,2.3,2.3,0,0,1-1.18-2,1.59,1.59,0,0,1,.36-1,1.1,1.1,0,0,1,.86-.43.72.72,0,0,1,.8.82.91.91,0,0,1-.25.65A.8.8,0,0,1,31,47q-.6,0-.6-.57c0-.2,0-.29-.07-.29s-.23.21-.23.64a2.1,2.1,0,0,0,1.06,1.75,4.49,4.49,0,0,0,2.57.72A6.92,6.92,0,0,0,38,47.86,19.27,19.27,0,0,0,42.14,43c.13-.19.32-.47.57-.86h-.23a1.93,1.93,0,0,0-1.89,1c0,.12-.08.17-.13.17s-.1,0-.1-.09c0-.33.23-.63.69-.92a2.66,2.66,0,0,1,1.45-.43h.35q3.19-4.82,6.68-6.37-.95-.21-2-.48a21.89,21.89,0,0,0-5-.85c-.25,0-.48,0-.7,0a4.84,4.84,0,0,1,.53,2.27,7.47,7.47,0,0,1-2.08,5,5.94,5.94,0,0,1-4.43,2.34,2.19,2.19,0,0,1-1.61-.62,2.22,2.22,0,0,1-.62-1.64A6.7,6.7,0,0,1,36,36.91a10.65,10.65,0,0,1,5.33-3,3.16,3.16,0,0,0-2.83-1.37,7.31,7.31,0,0,0-5.65,3,1.63,1.63,0,0,1-.23.21.11.11,0,0,1-.1-.08q0-.23,1-1.17a7.15,7.15,0,0,1,4.88-2.19,3.61,3.61,0,0,1,3.24,1.52,12.21,12.21,0,0,1,3-.33,11.18,11.18,0,0,1,2,.17c.61.12,2.07.45,4.39,1a14.08,14.08,0,0,1,5.08-1,6.92,6.92,0,0,1,2.25.31C59,34.2,59.24,34.47,59.24,34.81Zm-17.33,1.1a3.72,3.72,0,0,0-.41-1.64,9.17,9.17,0,0,0-5.23,2.67q-2.45,2.31-2.45,4.6A2.06,2.06,0,0,0,34.36,43a1.74,1.74,0,0,0,1.35.6q2.11,0,4.15-2.54A8.12,8.12,0,0,0,41.91,35.91ZM48,41.4c0-.35-.2-.52-.6-.52s-1,.42-1.35,1.25l-.09.22h.3a2.6,2.6,0,0,0,1.25-.27A.78.78,0,0,0,48,41.4Zm11-6.56c0-.25-.27-.47-.8-.65a6,6,0,0,0-1.91-.27,12.38,12.38,0,0,0-4.86.92l1.62.36a16.62,16.62,0,0,0,3.76.48,4.19,4.19,0,0,0,1.53-.26C58.79,35.25,59,35.06,59,34.84Z" transform="translate(-24.7 -31.22)"/><path class="cls-3" d="M51.22,45.19a1.87,1.87,0,0,1-.12.19l-.52.72q-2.3,3.18-3.49,3.18a1.27,1.27,0,0,1-1-.41,1.4,1.4,0,0,1-.38-1,4.93,4.93,0,0,1,.84-2.14l1.89-3.22a3.31,3.31,0,0,0,.6.08A8.13,8.13,0,0,0,50,42.5L47.24,47a3.4,3.4,0,0,0-.59,1.52c0,.37.19.55.57.55q1.08,0,3.81-3.86.06-.12.12-.12C51.2,45.12,51.22,45.14,51.22,45.19Zm-.17-5a1.13,1.13,0,0,1-.36.8,1.07,1.07,0,0,1-.79.37.48.48,0,0,1-.54-.55,1.09,1.09,0,0,1,.37-.77,1.14,1.14,0,0,1,.79-.37A.46.46,0,0,1,51.05,40.16Z" transform="translate(-24.7 -31.22)"/><path class="cls-3" d="M58,45.17a3.29,3.29,0,0,1-.76.93,2.89,2.89,0,0,1-1.86,1.11,1,1,0,0,1-.88-.58,12.15,12.15,0,0,1-1.77,2.07,2.09,2.09,0,0,1-1.37.58,1.43,1.43,0,0,1-1-.43,1.45,1.45,0,0,1-.42-1,4.69,4.69,0,0,1,.81-2.09l1.92-3.22q.6.06.81.06a3.35,3.35,0,0,0,.71-.06l-2.54,4.11a4.78,4.78,0,0,0-.84,1.92c0,.38.22.57.65.57a1.86,1.86,0,0,0,1.22-.55,15.06,15.06,0,0,0,1.79-2.07,2.32,2.32,0,0,1-.11-.64A4.5,4.5,0,0,1,55,43.57q.69-1.17,1.32-1.17c.2,0,.3.12.3.35,0,.61-.67,1.86-2,3.76a.84.84,0,0,0,.79.54c.62,0,1.37-.54,2.26-1.64.16-.2.27-.29.31-.29S58,45.13,58,45.17Z" transform="translate(-24.7 -31.22)"/><path class="cls-3" d="M64.17,45.2a1.27,1.27,0,0,1-.22.32l-.52.65q-2.52,3.11-4.32,3.11a1.87,1.87,0,0,1-1.43-.61,2.15,2.15,0,0,1-.58-1.54q0-2.19,3-3.86a5.89,5.89,0,0,1,2.62-.87,1.11,1.11,0,0,1,.74.26.79.79,0,0,1,.31.64c0,.58-.38,1.08-1.14,1.49a14.94,14.94,0,0,1-3.82,1.15A4.05,4.05,0,0,0,58,48c0,.69.37,1,1.13,1q1.92,0,4.71-3.75c.09-.13.17-.19.24-.19A.07.07,0,0,1,64.17,45.2Zm-1-2.25q0-.39-.42-.39a3,3,0,0,0-1.7.89A12.6,12.6,0,0,0,59,45.77a9.64,9.64,0,0,0,3-1.27C62.74,44,63.14,43.43,63.14,43Z" transform="translate(-24.7 -31.22)"/><path class="cls-3" d="M99.39,31.7c0,.2-.11.29-.34.29h-.21c-.44,0-.81-.07-1.09-.07q-3.14,0-7.39,2.74a24,24,0,0,0-3.47,2.68Q85.53,38.67,81.74,43A48.58,48.58,0,0,1,75,49.69a7.61,7.61,0,0,1-1.31.88s-.08,0-.08-.07l.27-.38a27.67,27.67,0,0,0,3.69-6.6,17.92,17.92,0,0,0,1.54-6.37Q79.13,33,75.8,33a6.68,6.68,0,0,0-3,.9,12.76,12.76,0,0,0-3.13,2.33,12.9,12.9,0,0,0-2.44,3.5,8.28,8.28,0,0,0-.92,3.6,3.35,3.35,0,0,0,.81,2.38,2.84,2.84,0,0,0,2.2.88q2.7,0,5.25-3.45a7.75,7.75,0,0,0,1.83-4.42,2.16,2.16,0,0,0-.43-1.39,1.45,1.45,0,0,0-1.16-.51A2.07,2.07,0,0,0,74,37c-.27.13-.4.26-.4.39s0,.07.08.07h.1l.38,0q.54,0,.54.6a.84.84,0,0,1-.29.65,1,1,0,0,1-.68.27q-.75,0-.75-.78a1.43,1.43,0,0,1,.54-1.1,2,2,0,0,1,1.31-.46,1.65,1.65,0,0,1,1.31.57,2.26,2.26,0,0,1,.5,1.52,8.52,8.52,0,0,1-2.36,5.22c-1.6,1.93-3.26,2.9-5,2.9a3.4,3.4,0,0,1-2.62-1.12,4.13,4.13,0,0,1-1-2.89c0-2.26,1.13-4.48,3.4-6.68s4.54-3.31,6.85-3.31a4.25,4.25,0,0,1,3.32,1.43A5.46,5.46,0,0,1,80.48,38a11.48,11.48,0,0,1-1.4,5.21,33.8,33.8,0,0,1-4.51,6.36.88.88,0,0,0-.12.17l0,0A6,6,0,0,0,76,48.68a24.4,24.4,0,0,0,2.09-2q1-1.07,5.13-5.79a45.84,45.84,0,0,1,4.33-4.41,27.37,27.37,0,0,1,4.19-2.94,13.86,13.86,0,0,1,6.66-2.16C99.06,31.35,99.39,31.47,99.39,31.7Z" transform="translate(-24.7 -31.22)"/><path class="cls-3" d="M87,45.19a1.87,1.87,0,0,1-.12.19l-.52.72q-2.3,3.18-3.49,3.18a1.27,1.27,0,0,1-1-.41,1.44,1.44,0,0,1-.38-1,4.93,4.93,0,0,1,.84-2.14l1.89-3.22a3.31,3.31,0,0,0,.6.08,8.13,8.13,0,0,0,.92-.08L83,47a3.4,3.4,0,0,0-.59,1.52c0,.37.19.55.57.55q1.08,0,3.81-3.86.06-.12.12-.12S87,45.14,87,45.19Zm-.17-5a1.13,1.13,0,0,1-.36.8,1.07,1.07,0,0,1-.79.37.48.48,0,0,1-.54-.55,1.09,1.09,0,0,1,.37-.77,1.14,1.14,0,0,1,.79-.37A.46.46,0,0,1,86.8,40.16Z" transform="translate(-24.7 -31.22)"/><path class="cls-3" d="M96.73,45.19A11.23,11.23,0,0,1,95,47.55c-1,1.15-1.72,1.73-2.28,1.73a1.14,1.14,0,0,1-.91-.43,1.51,1.51,0,0,1-.38-1,2.35,2.35,0,0,1,.23-1,18.67,18.67,0,0,1,1.17-1.85,5.26,5.26,0,0,0,1-1.86c0-.33-.18-.5-.53-.5q-1.77,0-5.47,6.59l-.71-.05a6.91,6.91,0,0,0-.81.05l1.9-3A10,10,0,0,0,89.79,43c0-.25-.1-.37-.31-.37-.41,0-1.23.88-2.45,2.62-.07.11-.13.16-.17.17s-.06,0-.07-.07a.19.19,0,0,1,0-.1l.23-.3c1.24-1.67,2.08-2.5,2.51-2.5a.88.88,0,0,1,.71.38,1.45,1.45,0,0,1,.29.9,4.55,4.55,0,0,1-.91,2.16,21.53,21.53,0,0,1,2.2-2.71,2.19,2.19,0,0,1,1.43-.73,1.1,1.1,0,0,1,.9.44,1.64,1.64,0,0,1,.36,1.08,5.43,5.43,0,0,1-1.11,2.49A6.12,6.12,0,0,0,92.3,48.6a.44.44,0,0,0,.5.5c.73,0,2-1.29,3.74-3.86q.06-.12.12-.12S96.73,45.14,96.73,45.19Z" transform="translate(-24.7 -31.22)"/><path class="cls-3" d="M102.86,45.2a1.27,1.27,0,0,1-.22.32l-.52.65q-2.52,3.11-4.32,3.11a1.88,1.88,0,0,1-1.43-.61,2.15,2.15,0,0,1-.58-1.54q0-2.19,3-3.86a5.89,5.89,0,0,1,2.62-.87,1.16,1.16,0,0,1,.75.26.81.81,0,0,1,.3.64c0,.58-.38,1.08-1.14,1.49a14.94,14.94,0,0,1-3.82,1.15A4.05,4.05,0,0,0,96.73,48c0,.69.38,1,1.13,1q1.92,0,4.71-3.75c.1-.13.18-.19.24-.19A.07.07,0,0,1,102.86,45.2Zm-1-2.25q0-.39-.42-.39a3,3,0,0,0-1.7.89,12.6,12.6,0,0,0-2.06,2.32,9.64,9.64,0,0,0,3-1.27C101.43,44,101.83,43.43,101.83,43Z" transform="translate(-24.7 -31.22)"/><path class="cls-3" d="M107,40.47c0,.33-.5,1-1.52,1.93a4.37,4.37,0,0,0-.07.66,6.69,6.69,0,0,0,.65,2.23,3.55,3.55,0,0,1,.32,1.29,2.34,2.34,0,0,1-1.06,1.9,4.1,4.1,0,0,1-2.52.8,1.85,1.85,0,0,1-1.32-.47,1.64,1.64,0,0,1-.49-1.26,2.87,2.87,0,0,1,.65-1.77,1.74,1.74,0,0,1,1.34-.86.54.54,0,0,1,.22,0l1-1.19,1.17-1.44a4.33,4.33,0,0,1,.63-1.46c.28-.41.56-.61.84-.61S107,40.33,107,40.47Zm-1.69,4.8c0-.24,0-.49,0-.73s0-.58,0-1a7.39,7.39,0,0,1,0-.91c-.45.57-1.11,1.38-2,2.43a.59.59,0,0,1,.24.47c0,.48-.4.8-1.18,1a1.54,1.54,0,0,0-.82.52,1.27,1.27,0,0,0-.35.86,1.08,1.08,0,0,0,.35.81,1.25,1.25,0,0,0,.88.33,2.55,2.55,0,0,0,1.94-1.19A4.06,4.06,0,0,0,105.27,45.27Z" transform="translate(-24.7 -31.22)"/></g><g class="cls-2"><path d="M47.13,56a1.8,1.8,0,0,1-.63,1.09,1.68,1.68,0,0,1-1.18.38,1.34,1.34,0,0,1-.72-.2,1.25,1.25,0,0,1-.47-.56,1.89,1.89,0,0,1-.19-.8,2.68,2.68,0,0,1,0-.49L44,55a2.79,2.79,0,0,1,.7-1.57,1.75,1.75,0,0,1,1.36-.56,1.32,1.32,0,0,1,1,.4,1.59,1.59,0,0,1,.38,1.08h-.57c0-.62-.27-.95-.73-1H46a1.2,1.2,0,0,0-1,.43A2.35,2.35,0,0,0,44.59,55l-.07.46,0,.26a1.55,1.55,0,0,0,.2.89.77.77,0,0,0,.65.35,1.11,1.11,0,0,0,.76-.23,1.41,1.41,0,0,0,.46-.76Z" transform="translate(-24.7 -31.22)"/><path d="M50.29,56.21H48.5l-.6,1.16h-.61L49.69,53h.5l.88,4.42H50.5Zm-1.54-.47h1.46l-.37-2.07Z" transform="translate(-24.7 -31.22)"/><path d="M54.17,56.23c0-.32-.13-.56-.51-.71l-.52-.19L53,55.25c-.59-.27-.87-.64-.83-1.13a1.24,1.24,0,0,1,.25-.65A1.46,1.46,0,0,1,53,53a1.84,1.84,0,0,1,.78-.14,1.43,1.43,0,0,1,.72.18,1.12,1.12,0,0,1,.47.47,1.32,1.32,0,0,1,.15.69h-.57a.78.78,0,0,0-.19-.64.82.82,0,0,0-.6-.23,1.14,1.14,0,0,0-.7.2.75.75,0,0,0-.32.55c0,.3.14.53.55.68l.46.17.23.09a1.16,1.16,0,0,1,.79,1.18,1.17,1.17,0,0,1-.25.64,1.48,1.48,0,0,1-.6.42,2,2,0,0,1-.81.14,1.64,1.64,0,0,1-.76-.18,1.19,1.19,0,0,1-.52-.47,1.26,1.26,0,0,1-.16-.69h.57a.77.77,0,0,0,.22.63,1,1,0,0,0,.68.24,1.21,1.21,0,0,0,.73-.2A.72.72,0,0,0,54.17,56.23Z" transform="translate(-24.7 -31.22)"/><path d="M59.1,53l-.51,3A1.73,1.73,0,0,1,58,57a1.82,1.82,0,0,1-1.19.4,1.68,1.68,0,0,1-.76-.2,1.11,1.11,0,0,1-.47-.53,1.48,1.48,0,0,1-.1-.77L56,53h.56L56,56a1,1,0,0,0,.16.73.79.79,0,0,0,.64.28,1.1,1.1,0,0,0,.78-.25A1.25,1.25,0,0,0,58,56l.51-3Z" transform="translate(-24.7 -31.22)"/><path d="M61.75,56.21H60l-.6,1.16h-.61L61.15,53h.5l.88,4.42H62Zm-1.54-.47h1.46l-.37-2.07Z" transform="translate(-24.7 -31.22)"/><path d="M63.8,56.89h2l-.08.48H63.14L63.91,53h.57Z" transform="translate(-24.7 -31.22)"/><path d="M68,57.37,68.71,53h1.15a1.59,1.59,0,0,1,.93.27,1.47,1.47,0,0,1,.56.75A2.29,2.29,0,0,1,71.46,55l0,.22a2.48,2.48,0,0,1-.75,1.55,2.18,2.18,0,0,1-1.55.57Zm1.25-3.95-.6,3.47h.56a1.56,1.56,0,0,0,1.09-.4,1.81,1.81,0,0,0,.58-1.1,3.34,3.34,0,0,0,.08-1,1.13,1.13,0,0,0-.32-.73,1,1,0,0,0-.71-.28Z" transform="translate(-24.7 -31.22)"/><path d="M72.55,57.37H72L72.75,53h.56Z" transform="translate(-24.7 -31.22)"/><path d="M76.91,57.37h-.55l-1.58-3.43-.6,3.43h-.57L74.38,53h.55l1.58,3.45.6-3.45h.57Z" transform="translate(-24.7 -31.22)"/><path d="M78.55,57.37H78L78.75,53h.57Z" transform="translate(-24.7 -31.22)"/><path d="M82.91,57.37h-.55l-1.58-3.43-.59,3.43h-.58L80.38,53h.55l1.59,3.45.6-3.45h.56Z" transform="translate(-24.7 -31.22)"/><path d="M87.25,56.79a1.38,1.38,0,0,1-.64.48,2.5,2.5,0,0,1-1,.16,1.43,1.43,0,0,1-.76-.2,1.32,1.32,0,0,1-.51-.56,2,2,0,0,1-.22-.82,5,5,0,0,1,.09-1,3.3,3.3,0,0,1,.39-1.07,2.07,2.07,0,0,1,.69-.69,1.88,1.88,0,0,1,1-.22,1.41,1.41,0,0,1,1,.36,1.51,1.51,0,0,1,.41,1h-.56a1,1,0,0,0-.25-.65.87.87,0,0,0-.61-.24,1.18,1.18,0,0,0-1,.41A2.36,2.36,0,0,0,84.79,55l-.06.42v.24a1.46,1.46,0,0,0,.25.92.83.83,0,0,0,.69.34,1.44,1.44,0,0,0,1-.32l.18-1h-1l.09-.48H87.5Z" transform="translate(-24.7 -31.22)"/></g></svg>