<?xml version="1.0" encoding="utf-8"?>
<!-- Generator: Adobe Illustrator 22.1.0, SVG Export Plug-In . SVG Version: 6.00 Build 0)  -->
<svg version="1.1" id="Layer_1" xmlns="http://www.w3.org/2000/svg" xmlns:xlink="http://www.w3.org/1999/xlink" x="0px" y="0px"
	 viewBox="0 0 43 67" style="enable-background:new 0 0 43 67;" xml:space="preserve">
<style type="text/css">
	.st0{fill:#FFFFFF;}
</style>
<g>
	<circle cx="21.1" cy="35.5" r="21.5"/>
	<path class="st0" d="M33.2,47.6H9c-1.9,0-3.5-1.6-3.5-3.5V28c0-1.9,1.6-3.5,3.5-3.5h2.3c0,0,0-1.2,2.3-1.2s2.3,1.2,2.3,1.2h10.3
		c0,0,0-1.2,2.3-1.2s2.6,1.2,2.6,1.2h2.1c1.9,0,3.5,1.6,3.5,3.5v16.1C36.7,46,35.2,47.6,33.2,47.6z"/>
	<rect x="5" y="30.1" width="32.2" height="1.3"/>
	<polygon points="15.7,39.5 17.9,37.4 19,41.7 25.9,34.2 26.5,35.2 19,44.9 	"/>
	<rect x="13.6" y="24.8" width="1.3" height="2.7"/>
	<rect x="27" y="24.8" width="1.3" height="2.7"/>
</g>
</svg>
